<svg xmlns="http://www.w3.org/2000/svg" viewBox="0 0 1280.2 740"><polygon points="78.22 9.4 34.34 34.68 9.01 78.5 56.32 160.27 138.2 113.05 138.2 44 78.22 9.4"/><polygon points="213.03 87.22 153.2 122.04 153.2 216 247.93 216.46 273.2 172.64 273.2 122 213.03 87.22"/><polygon points="209.47 313.55 256.95 232 307.2 232 351.2 257.32 351.2 326 291.51 361.01 209.47 313.55"/><polygon points="719.22 379.4 675.34 404.68 650.01 448.5 697.32 530.27 779.2 483.05 779.2 414 719.22 379.4"/><polygon points="854.03 457.23 794.2 492.04 794.2 586 888.93 586.46 914.2 542.64 914.2 492 854.03 457.23"/><polygon points="850.47 683.55 897.95 602 948.2 602 992.2 627.33 992.2 696 932.51 731.01 850.47 683.55"/><polygon points="291.24 379.23 209.6 426.33 256.95 508 307.2 508 351.2 482.67 351.2 414 291.24 379.23"/><polygon points="248.2 524 153.6 523.6 153.53 617.96 213.37 652.52 273.2 617.96 273.2 567 248.2 524"/><polygon points="138.2 626.94 56.31 579.73 9.04 661.5 34.31 705.33 78.23 730.63 138.2 696.07 138.2 626.94"/><polygon points="1202.08 9.4 1245.91 34.68 1271.22 78.5 1223.99 160.27 1142.2 113.05 1142.2 44 1202.08 9.4"/><polygon points="1067.37 87.22 1127.2 122.04 1127.2 216 1032.46 216.46 1007.2 172.64 1007.2 122 1067.37 87.22"/><polygon points="1070.74 313.55 1023.26 232 973.01 232 929.2 257.32 929.2 326 988.79 361.01 1070.74 313.55"/><polygon points="562.08 379.4 605.91 404.68 631.22 448.5 583.99 530.27 502.2 483.05 502.2 414 562.08 379.4"/><polygon points="427.37 457.23 487.2 492.04 487.2 586 392.46 586.46 367.2 542.64 367.2 492 427.37 457.23"/><polygon points="430.74 683.55 383.26 602 333.01 602 289.2 627.33 289.2 696 348.79 731.01 430.74 683.55"/><polygon points="989.06 379.23 1070.65 426.33 1023.26 508 973.01 508 929.2 482.67 929.2 414 989.06 379.23"/><polygon points="1032.01 524 1127.01 524 1126.67 617.96 1066.93 652.52 1007.2 617.96 1007.2 567 1032.01 524"/><polygon points="1142.2 626.94 1223.99 579.73 1271.21 661.5 1245.92 705.33 1202.08 730.63 1142.2 696.07 1142.2 626.94"/><polygon points="349.06 9.22 430.65 56.33 383.26 138 333.01 138 289.2 112.67 289.2 44 349.06 9.22"/><polygon points="392.01 154 487.01 154 486.67 247.96 426.94 282.52 367.2 247.96 367.2 197 392.01 154"/><polygon points="502.2 256.94 583.99 209.73 631.21 291.5 605.92 335.33 562.08 360.63 502.2 326.07 502.2 256.94"/><polygon points="931.24 9.22 849.6 56.33 896.95 138 947.2 138 991.2 112.67 991.2 44 931.24 9.22"/><polygon points="888.2 154 793.2 154 793.53 247.96 853.37 282.52 913.2 247.96 913.2 197 888.2 154"/><polygon points="778.2 256.94 696.31 209.73 649.04 291.5 674.31 335.33 718.24 360.63 778.2 326.07 778.2 256.94"/><polygon points="374.2 154 328.2 154 289.2 131.02 289.2 177 265.93 216 312.2 216 351.2 239.35 351.2 193.57 374.2 154"/><polygon points="1014.2 523 968.2 523 929.2 500.02 929.2 546 905.93 585 952.2 585 991.2 608.36 991.2 562.57 1014.2 523"/><polygon points="266.18 523.69 289.2 563.18 289.2 609 328.48 586 374.2 586 351.2 546.43 351.2 501 311.72 523.53 266.18 523.69"/><polygon points="906.18 153.69 929.2 193.19 929.2 239 968.48 216 1014.2 216 991.2 176.43 991.2 131 951.72 153.53 906.18 153.69"/><polygon points="640.2 307.45 617.3 347.1 577.65 370 617.3 392.89 640.2 432.54 663.09 392.89 702.74 370 663.09 347.1 640.2 307.45"/><polygon points="486.69 266.11 426.94 300.77 367.2 266.31 367.2 335 307.2 370 367.2 404.56 367.2 474 426.56 439.12 486.2 473.68 486.2 404 546.52 370 486.66 335.44 486.69 266.11"/><polygon points="913.69 266.11 853.94 300.77 794.2 266.31 794.2 335 734.2 370 794.2 404.56 794.2 474 853.57 439.12 913.2 473.68 913.2 404 973.52 370 913.66 335.44 913.69 266.11"/><polygon points="1185.86 740 1126.66 705.63 1126.69 636.21 1066.94 670.82 1007.2 636.31 1007.2 705 947.86 740 1185.86 740"/><polygon points="332.86 739 273.66 704.63 273.69 635.21 213.94 669.82 154.2 635.31 154.2 704 94.86 739 332.86 739"/><polygon points="332.86 0 273.66 34.48 273.69 103.95 213.94 69.36 154.2 103.9 154.2 35.21 94.86 0 332.86 0"/><polygon points="1185.86 0 1126.66 34.48 1126.69 103.95 1066.94 69.36 1007.2 103.9 1007.2 35.21 947.86 0 1185.86 0"/><polygon points="0.2 0 0.2 62.2 0.29 62.54 23.14 22.89 62.74 0 0.2 0"/><polygon points="1217.65 0 1257.3 22.89 1280.2 62.54 1280.2 0 1217.65 0"/><polygon points="1217.65 740 1217.65 740 1280.2 740 1280.2 677.45 1257.3 717.1 1217.65 740"/><polygon points="61.02 739 23.09 717.1 0.2 677.45 0.2 739 61.02 739"/><polygon points="0.22 210.68 50.61 181.51 79.66 232 138.2 232 137.97 290.34 188.47 319.5 159.32 370 188.59 420.5 138.2 449.66 138.2 508 79.66 507.97 50.5 558.47 0 529.31 0.22 210.68"/><polygon points="0.2 547.28 42.64 572.03 0.2 645.94 0.2 547.28"/><polygon points="88.75 523.77 64.15 566.37 138.2 608.97 137.85 523.65 88.75 523.77"/><polygon points="153.2 459 153.2 508 238.98 507.97 196.26 433.98 153.2 459"/><polygon points="177.29 370 201.95 412.72 275.95 370 201.95 327.28 177.29 370"/><polygon points="195.92 306.01 153.2 281.35 153.2 232 238.54 232.02 195.92 306.01"/><polygon points="138.2 216 88.2 216 63.98 173.74 137.97 131.02 138.2 216"/><polygon points="42.92 168.02 0.2 192.71 0.2 94 42.92 168.02"/><polygon points="480.68 739.72 451.61 689.33 502.2 660.28 502.2 601.75 560.44 601.97 589.55 551.47 640.02 580.63 690.51 551.48 719.66 602 778 602 777.97 660.41 828.47 689.51 799.32 739.98 480.68 739.72"/><polygon points="817.29 740 842.03 697.56 915.94 740 817.29 740"/><polygon points="793.77 651.19 836.37 675.8 878.97 601.75 793.66 602.09 793.77 651.19"/><polygon points="729 587 778 587 777.97 501.09 703.98 543.88 729 587"/><polygon points="640 562.66 682.72 537.99 640 464 597.28 537.99 640 562.66"/><polygon points="576.01 544.15 551.36 587 502 587 502.03 501.59 576.01 544.15"/><polygon points="486.2 601.75 486.2 651.75 443.84 675.97 401.17 601.97 486.2 601.75"/><polygon points="438.02 697.28 462.71 740 364 740 438.02 697.28"/><polygon points="1279.69 529.29 1229.31 558.47 1200.26 508 1141.72 508 1141.94 449.65 1091.44 420.48 1120.6 369.98 1091.57 319.47 1142.2 290.31 1142.2 231.97 1200.5 232 1229.54 181.5 1279.98 210.66 1279.69 529.29"/><polygon points="1280.2 192.69 1237.76 167.94 1280.2 94.03 1280.2 192.69"/><polygon points="1191.16 216.21 1215.77 173.6 1141.72 131 1142.07 216.32 1191.16 216.21"/><polygon points="1127.2 280.97 1127.2 231.97 1041.18 232 1084.02 306 1127.2 280.97"/><polygon points="1102.63 369.97 1077.97 327.25 1003.97 369.97 1077.97 412.69 1102.63 369.97"/><polygon points="1084.24 433.96 1127.2 458.62 1127.2 507.97 1041.73 507.95 1084.24 433.96"/><polygon points="1141.72 524 1191.72 524 1215.94 566.24 1141.94 608.97 1141.72 524"/><polygon points="1237.48 571.95 1280.2 547.26 1280.2 645.97 1237.48 571.95"/><polygon points="799.26 0.28 828.56 50.67 778.2 79.71 778.2 138.25 719.73 138.03 690.51 188.53 639.98 159.37 589.46 188.51 560.29 138 501.94 138 501.97 79.59 451.47 50.49 480.63 0.02 799.26 0.28"/><polygon points="462.66 0 437.91 42.44 364 0 462.66 0"/><polygon points="486.18 88.81 443.57 64.2 400.97 138.25 486.29 137.91 486.18 88.81"/><polygon points="550.94 153 501.94 153 501.97 238.91 575.97 196.12 550.94 153"/><polygon points="639.95 177.34 597.23 202.01 639.95 276 682.67 202.01 639.95 177.34"/><polygon points="703.94 195.85 728.59 153 777.94 153 777.92 238.41 703.94 195.85"/><polygon points="794.2 138.25 794.2 88.25 836.33 64.03 879.11 138.03 794.2 138.25"/><polygon points="841.92 42.72 817.23 0 915.94 0 841.92 42.72"/></svg>